<svg xmlns="http://www.w3.org/2000/svg" width="38.779" height="35.291" viewBox="0 0 38.779 35.291">
  <path id="Icon_awesome-shopping-cart" data-name="Icon awesome-shopping-cart" d="M34.633,20.181l3.1-13.931A1.6,1.6,0,0,0,36.2,4.286H10.441l-.6-3A1.582,1.582,0,0,0,8.3,0H1.574A1.591,1.591,0,0,0,0,1.607V2.679A1.591,1.591,0,0,0,1.574,4.286H6.157l4.607,23a3.763,3.763,0,0,0-1.845,3.253,3.673,3.673,0,1,0,7.345,0,3.778,3.778,0,0,0-1.1-2.679H28.908a3.778,3.778,0,0,0-1.1,2.679,3.673,3.673,0,1,0,7.345,0,3.758,3.758,0,0,0-2.071-3.376l.362-1.626a1.6,1.6,0,0,0-1.535-1.964H14.3l-.429-2.143H33.1A1.581,1.581,0,0,0,34.633,20.181Z" transform="translate(0.5 0.5)" stroke="#000" stroke-width="1"/>
</svg>
